<svg width="800" height="800" viewBox="0 0 800 800" fill="none" xmlns="http://www.w3.org/2000/svg">
<path d="M516.667 300L522.387 305.719C566.83 350.163 589.054 372.387 589.054 400C589.054 427.613 566.83 449.837 522.387 494.28L516.667 500" stroke="black" stroke-width="50" stroke-linecap="round"/>
<path d="M443.14 239.014L400.003 400L356.866 560.99" stroke="black" stroke-width="50" stroke-linecap="round"/>
<path d="M283.331 300L277.612 305.719C233.168 350.163 210.945 372.387 210.945 400C210.945 427.613 233.168 449.837 277.612 494.28L283.331 500" stroke="black" stroke-width="50" stroke-linecap="round"/>
<path d="M233.334 111.261C282.363 82.899 339.287 66.6666 400 66.6666C584.094 66.6666 733.334 215.905 733.334 400C733.334 584.093 584.094 733.333 400 733.333C215.905 733.333 66.667 584.093 66.667 400C66.667 339.287 82.8993 282.362 111.261 233.333" stroke="black" stroke-width="50" stroke-linecap="round"/>
</svg>
