<svg width="800" height="800" viewBox="0 0 800 800" fill="none" xmlns="http://www.w3.org/2000/svg">
<path d="M441.784 647.477C432.02 637.713 416.19 637.713 406.427 647.477C396.664 657.24 396.664 673.07 406.427 682.833L441.784 647.477ZM117.168 393.573C126.932 403.337 142.761 403.337 152.524 393.573C162.287 383.81 162.287 367.98 152.524 358.217L117.168 393.573ZM375.897 134.846L393.574 152.523C398.26 147.835 400.897 141.476 400.897 134.846C400.897 128.215 398.26 121.856 393.574 117.168L375.897 134.846ZM665.154 424.103L682.834 406.427C678.144 401.74 671.784 399.103 665.154 399.103C658.524 399.103 652.167 401.74 647.477 406.427L665.154 424.103ZM277.868 197.518C268.105 207.281 268.105 223.11 277.868 232.873C287.631 242.636 303.46 242.636 313.223 232.873L277.868 197.518ZM567.127 486.777C557.364 496.54 557.364 512.37 567.127 522.133C576.89 531.897 592.72 531.897 602.484 522.133L567.127 486.777ZM616.227 701.143C626.064 691.45 626.18 675.623 616.49 665.787C606.8 655.953 590.97 655.833 581.137 665.523L616.227 701.143ZM664.247 582.433C654.544 592.257 654.644 608.087 664.467 617.787C674.29 627.49 690.12 627.39 699.82 617.567L664.247 582.433ZM165.378 117.168L117.168 165.378L152.524 200.733L200.734 152.523L165.378 117.168ZM406.427 682.833C428.654 705.06 447.064 723.543 463.604 736.163C480.724 749.223 498.74 758.333 520.524 758.333V708.333C514.067 708.333 506.604 706.08 493.934 696.413C480.687 686.307 465.01 670.703 441.784 647.477L406.427 682.833ZM117.168 165.378C94.9417 187.605 76.456 206.015 63.8363 222.555C50.7763 239.673 41.667 257.691 41.667 279.475H91.667C91.667 273.019 93.9207 265.554 103.587 252.885C113.694 239.638 129.298 223.959 152.524 200.733L117.168 165.378ZM152.524 358.217C129.298 334.99 113.694 319.312 103.587 306.066C93.9207 293.397 91.667 285.932 91.667 279.475H41.667C41.667 301.26 50.7763 319.278 63.8363 336.397C76.456 352.937 94.9417 371.347 117.168 393.573L152.524 358.217ZM393.574 117.168C371.347 94.9413 352.937 76.4556 336.397 63.836C319.279 50.776 301.26 41.6666 279.476 41.6666V91.6666C285.932 91.6666 293.397 93.9203 306.067 103.587C319.313 113.694 334.99 129.297 358.217 152.523L393.574 117.168ZM200.734 152.523C223.96 129.297 239.638 113.694 252.885 103.587C265.554 93.9206 273.019 91.6666 279.476 91.6666V41.6666C257.691 41.6666 239.673 50.776 222.556 63.836C206.016 76.4556 187.605 94.9413 165.378 117.168L200.734 152.523ZM647.477 441.783C670.704 465.01 686.307 480.687 696.414 493.933C706.08 506.603 708.334 514.067 708.334 520.523H758.334C758.334 498.74 749.224 480.723 736.164 463.603C723.544 447.063 705.06 428.653 682.834 406.427L647.477 441.783ZM358.217 117.168L277.868 197.518L313.223 232.873L393.574 152.523L358.217 117.168ZM647.477 406.427L567.127 486.777L602.484 522.133L682.834 441.783L647.477 406.427ZM581.137 665.523C564.13 682.28 552.117 693.25 541.954 700.143C532.384 706.633 526.134 708.333 520.524 708.333V758.333C539.1 758.333 555.014 751.7 570.017 741.523C584.43 731.75 599.4 717.72 616.227 701.143L581.137 665.523ZM699.82 617.567C716.8 600.373 731.15 585.163 741.13 570.593C751.524 555.427 758.334 539.35 758.334 520.523H708.334C708.334 526.197 706.594 532.54 699.887 542.33C692.767 552.717 681.464 564.997 664.247 582.433L699.82 617.567Z" fill="black"/>
<path d="M478.67 135.955L509.564 105.059C560.754 53.869 643.75 53.869 694.94 105.059C746.13 156.249 746.13 239.245 694.94 290.435L664.044 321.331M478.67 135.955C478.67 135.955 482.53 201.609 540.46 259.539C598.39 317.469 664.044 321.331 664.044 321.331M478.67 135.955L400 214.624M664.044 321.331L488.69 496.687L385.377 600L380.004 605.373C360.764 624.61 351.147 634.23 340.54 642.503C328.028 652.263 314.49 660.63 300.166 667.457C288.024 673.243 275.118 677.543 249.306 686.147L139.931 722.607M139.931 722.607L113.195 731.52C100.493 735.753 86.489 732.447 77.0213 722.98C67.5536 713.51 64.248 699.507 68.482 686.807L77.394 660.07M139.931 722.607L77.394 660.07M77.394 660.07L113.852 550.693C122.456 524.883 126.758 511.977 132.545 499.833C139.372 485.51 147.738 471.973 157.497 459.46C165.77 448.853 175.389 439.237 194.628 419.997L283.334 331.291" stroke="black" stroke-width="50" stroke-linecap="round"/>
</svg>
