<svg width="800" height="800" viewBox="0 0 800 800" fill="none" xmlns="http://www.w3.org/2000/svg">
<path d="M434.133 485.337C357.14 516.133 318.643 531.533 296.655 516.59C291.441 513.047 286.945 508.55 283.402 503.337C268.46 481.35 283.858 442.853 314.656 365.86C321.224 349.437 324.509 341.227 330.158 334.783C331.597 333.143 333.143 331.597 334.783 330.158C341.227 324.509 349.437 321.224 365.86 314.655C442.853 283.858 481.35 268.46 503.337 283.402C508.55 286.945 513.047 291.441 516.59 296.655C531.533 318.643 516.133 357.14 485.337 434.133C478.767 450.553 475.483 458.767 469.833 465.207C468.393 466.85 466.85 468.393 465.207 469.833C458.767 475.483 450.553 478.767 434.133 485.337Z" stroke="black" stroke-width="50"/>
<path d="M733.333 400C733.333 557.133 733.333 635.703 684.516 684.517C635.703 733.333 557.133 733.333 400 733.333C242.865 733.333 164.297 733.333 115.482 684.517C66.6665 635.703 66.6665 557.133 66.6665 400C66.6665 242.865 66.6665 164.298 115.482 115.482C164.297 66.6666 242.865 66.6666 400 66.6666C557.133 66.6666 635.703 66.6666 684.516 115.482C716.976 147.94 727.853 193.552 731.496 266.667" stroke="black" stroke-width="50" stroke-linecap="round"/>
</svg>
